<?xml version="1.0" encoding="UTF-8"?>
<svg version="1.1" xmlns="http://www.w3.org/2000/svg" width="512" height="512">
<path d="M0 0 C1.62780489 -0.00435621 3.25560773 -0.00954236 4.88340759 -0.01548767 C9.28134784 -0.028809 13.67920174 -0.02946272 18.07715821 -0.02692437 C21.77554299 -0.02584736 25.47391082 -0.0307579 29.17229193 -0.03552979 C37.92672334 -0.04660697 46.68111186 -0.04707616 55.43554688 -0.04101562 C64.38580404 -0.035013 73.33590253 -0.04719579 82.28613263 -0.06858569 C90.02774595 -0.08638861 97.76930969 -0.09217306 105.51094264 -0.08894795 C110.10828408 -0.08716017 114.70551304 -0.08951114 119.30283546 -0.10366249 C170.78408081 -0.24848189 220.4366533 2.32982448 258.93432617 40.1496582 C270.14276813 51.46556747 287.62182617 72.26076059 287.62182617 89.2746582 C288.63580475 89.26799637 289.64978333 89.26133453 290.69448853 89.25447083 C300.25807895 89.19361161 309.82163 89.14866245 319.38537025 89.11922169 C324.30199897 89.10357698 329.21847114 89.08236044 334.13500977 89.04833984 C338.88123485 89.0157039 343.62730951 88.9977962 348.37363815 88.99002647 C350.18290957 88.98449058 351.99217291 88.97368028 353.80138016 88.95746803 C356.33887669 88.93563737 358.87575449 88.93269362 361.41333008 88.93408203 C362.15851898 88.9232962 362.90370789 88.91251038 363.67147827 88.90139771 C368.40181864 88.92933762 371.6069267 89.7742217 375.62182617 92.2746582 C380.29113579 97.44875805 380.98470242 100.6708753 380.89526367 107.51293945 C380.50562755 111.44826424 379.33534028 113.42198952 376.62182617 116.2746582 C371.49081691 119.72259376 368.25664072 120.77135172 361.94238281 120.72875977 C360.84357285 120.72963593 360.84357285 120.72963593 359.7225647 120.73052979 C357.32520497 120.72776512 354.92912221 120.69675269 352.53198242 120.6652832 C350.86047545 120.65781499 349.18895968 120.6521248 347.5174408 120.64813232 C343.13605212 120.63292153 338.75520097 120.59367973 334.37402344 120.54931641 C329.89615142 120.50826484 325.41819184 120.49010028 320.94018555 120.4699707 C312.16715349 120.42718039 303.39455686 120.35898518 294.62182617 120.2746582 C294.86483208 121.9032653 294.86483208 121.9032653 295.11274719 123.56477356 C295.95229551 129.68293506 295.80631074 135.79560359 295.80932617 141.9621582 C295.82157227 143.26088867 295.83381836 144.55961914 295.84643555 145.89770508 C295.84836914 147.1809668 295.85030273 148.46422852 295.85229492 149.78637695 C295.85640381 150.93581787 295.8605127 152.08525879 295.86474609 153.26953125 C295.69451639 158.66636618 294.5855161 163.97424372 293.62182617 169.2746582 C295.05216438 169.26466545 295.05216438 169.26466545 296.51139832 169.25447083 C305.50136817 169.19363421 314.49129622 169.14867333 323.48142529 169.11922169 C328.10326408 169.10357123 332.72493659 169.08234427 337.34667969 169.04833984 C341.80761155 169.01572428 346.26838353 168.99780052 350.72942543 168.99002647 C352.43067249 168.98448691 354.13191089 168.97366945 355.83308983 168.95746803 C358.21753161 168.93566429 360.60131427 168.93269247 362.98583984 168.93408203 C363.68787033 168.9232962 364.38990082 168.91251038 365.11320496 168.90139771 C371.08910099 168.93903659 374.03299291 170.89766938 378.43432617 174.7121582 C381.48066092 178.53689395 381.13900127 182.66902661 381.09057617 187.37231445 C380.53633639 190.80398244 379.80020679 192.55614633 377.62182617 195.2746582 C372.28533535 198.92946014 368.51026873 199.86286185 362.11621094 199.82055664 C361.29588882 199.83089432 360.47556671 199.84123199 359.63038635 199.85188293 C356.94113173 199.88118714 354.25263378 199.88280745 351.56323242 199.8840332 C349.68992183 199.89902324 347.81662441 199.91575212 345.94334412 199.93414307 C341.02954483 199.97773631 336.11592381 199.99779788 331.20196533 200.01287842 C326.18100479 200.03247845 321.16023594 200.07444522 316.1394043 200.11450195 C306.30027083 200.18971711 296.46118046 200.24006122 286.62182617 200.2746582 C286.29316811 201.03365417 286.29316811 201.03365417 285.95787048 201.8079834 C284.94337515 204.14286561 283.92132499 206.47436964 282.89916992 208.8059082 C282.38259827 209.99941895 282.38259827 209.99941895 281.85559082 211.21704102 C276.6516833 223.04602777 269.6492875 233.01617917 260.62182617 242.2746582 C259.79682617 243.1409082 258.97182617 244.0071582 258.12182617 244.8996582 C257.29682617 245.6834082 256.47182617 246.4671582 255.62182617 247.2746582 C255.0365918 247.84313477 254.45135742 248.41161133 253.84838867 248.99731445 C234.0711111 267.48796616 208.41987421 277.6255896 182.24682617 283.0246582 C180.8147583 283.32291504 180.8147583 283.32291504 179.35375977 283.62719727 C159.92085123 287.38674121 140.48922688 287.55029507 120.76245117 287.4699707 C118.03334665 287.46510252 115.30424227 287.46329014 112.57513428 287.46139526 C106.1831845 287.45524223 99.79130525 287.43891751 93.39938617 287.41869628 C86.10765636 287.39614186 78.81592273 287.38529534 71.52416658 287.37530541 C56.55668087 287.3545438 41.58926066 287.3194916 26.62182617 287.2746582 C26.62366976 288.0615034 26.62551334 288.8483486 26.6274128 289.65903759 C26.6716783 308.84920551 26.70472469 328.03936317 26.72545052 347.22957134 C26.73574106 356.50999987 26.74975867 365.79039421 26.77270508 375.07080078 C26.79270724 383.16433401 26.80555874 391.25784246 26.81000316 399.35139972 C26.81259903 403.63256417 26.81865361 407.91365779 26.83328629 412.19479942 C26.84697833 416.2339039 26.85102562 420.27290913 26.84804153 424.31203461 C26.84858655 425.78529464 26.85249418 427.25855839 26.86023712 428.73179817 C26.94797822 446.3054184 25.65581763 464.12620625 12.73901367 477.17700195 C3.06541538 486.14879018 -7.2801043 488.83124052 -20.37036133 488.5168457 C-31.88035147 487.96926727 -40.9751642 483.35593065 -48.75317383 474.8371582 C-57.4583001 463.77796961 -59.54071508 449.87444108 -59.49842834 436.17605591 C-59.49928277 435.16229193 -59.50013719 434.14852794 -59.50101751 433.10404384 C-59.50266381 429.70923713 -59.49716482 426.31447989 -59.49169922 422.91967773 C-59.49141714 420.48532614 -59.49157549 418.05097447 -59.49214172 415.61662292 C-59.4923694 410.3767054 -59.48953408 405.13679904 -59.48390388 399.89688492 C-59.47576892 392.320895 -59.47317162 384.7449111 -59.47191589 377.16891728 C-59.46972852 364.87668688 -59.46307693 352.58446312 -59.45361328 340.29223633 C-59.44443105 328.35310906 -59.43735418 316.4139836 -59.43310547 304.47485352 C-59.43284275 303.73864195 -59.43258002 303.00243038 -59.43230934 302.24390937 C-59.43100428 298.55046759 -59.42974057 294.8570258 -59.42849743 291.16358399 C-59.4181346 260.53393731 -59.40045036 229.90429868 -59.37817383 199.2746582 C-60.13937027 199.28354065 -60.90056671 199.2924231 -61.68482971 199.30157471 C-68.87880781 199.38191651 -76.07256659 199.44272136 -83.26687717 199.48190689 C-86.96506035 199.50273035 -90.66287101 199.53095044 -94.36083984 199.57641602 C-97.93351307 199.62006331 -101.50582931 199.64383469 -105.0787487 199.65416718 C-106.43786166 199.66152494 -107.79695635 199.67589292 -109.15591621 199.69757843 C-122.43778915 199.90098195 -122.43778915 199.90098195 -128.37817383 195.2746582 C-131.9088911 190.83583464 -132.05248306 186.81159784 -131.93676758 181.2980957 C-131.02706136 176.37423129 -128.25882015 173.30771154 -124.37817383 170.2746582 C-121.12445838 169.19008639 -118.76918063 169.15418963 -115.34619141 169.16113281 C-114.10513138 169.16120834 -112.86407135 169.16128387 -111.58540344 169.16136169 C-110.23117025 169.1664683 -108.87693746 169.17168429 -107.52270508 169.17700195 C-106.13693798 169.17886737 -104.75117022 169.18029069 -103.36540222 169.18128967 C-99.72069473 169.18510511 -96.07602718 169.19492708 -92.43133545 169.20599365 C-88.71114655 169.21622871 -84.99095099 169.22084658 -81.27075195 169.22583008 C-73.97319065 169.23601936 -66.67573899 169.25559345 -59.37817383 169.2746582 C-59.37817383 153.1046582 -59.37817383 136.9346582 -59.37817383 120.2746582 C-63.71200195 120.30946289 -68.04583008 120.34426758 -72.51098633 120.38012695 C-75.97600038 120.39943253 -79.44099914 120.41569642 -82.90603638 120.42990875 C-86.55864328 120.44572227 -90.21103987 120.46683927 -93.86352539 120.50097656 C-97.38430732 120.53367538 -100.90488584 120.55153321 -104.42580795 120.55928993 C-106.41660018 120.56749553 -108.40731107 120.59089819 -110.39797974 120.61454773 C-111.61879242 120.61477432 -112.8396051 120.61500092 -114.09741211 120.61523438 C-115.16774689 120.62189621 -116.23808167 120.62855804 -117.34085083 120.63542175 C-122.20564129 120.05759744 -125.42625516 118.32948699 -128.69067383 114.7121582 C-132.12007125 109.75858415 -131.98781444 105.18733697 -131.37817383 99.2746582 C-128.80390542 94.12612139 -125.83214981 91.0926502 -120.37817383 89.2746582 C-118.39974622 89.18576989 -116.41840749 89.15704947 -114.43798828 89.16113281 C-113.21694901 89.16120834 -111.99590973 89.16128387 -110.73786926 89.16136169 C-108.75964424 89.16910362 -108.75964424 89.16910362 -106.74145508 89.17700195 C-105.37810823 89.1788674 -104.01476072 89.18029071 -102.65141296 89.18128967 C-99.06588892 89.18510488 -95.48040548 89.19492665 -91.89489746 89.20599365 C-88.23503163 89.2162292 -84.57515923 89.22079189 -80.9152832 89.22583008 C-73.73622825 89.23654982 -66.55720673 89.25361428 -59.37817383 89.2746582 C-59.39388428 87.9649707 -59.40959473 86.6552832 -59.42578125 85.3059082 C-59.48075291 80.37075131 -59.51476445 75.43562049 -59.54296875 70.50024414 C-59.55790416 68.37845281 -59.57825989 66.2566915 -59.60449219 64.13500977 C-59.82267868 46.01269677 -59.63587295 29.54323975 -49.19067383 14.0246582 C-35.85077512 0.98120169 -17.63616048 -0.0314192 0 0 Z M26.62182617 61.2746582 C26.62182617 70.5146582 26.62182617 79.7546582 26.62182617 89.2746582 C83.05182617 89.2746582 139.48182617 89.2746582 197.62182617 89.2746582 C181.22347928 70.1432535 156.85126133 64.69281329 132.62182617 62.2746582 C131.39919823 62.14900482 131.39919823 62.14900482 130.15187073 62.02081299 C119.44198455 61.05200492 108.75308184 61.14823481 98.00854492 61.17700195 C95.94204238 61.17887072 93.8755394 61.18029246 91.80903625 61.18128967 C86.41198469 61.18507872 81.01496071 61.1948775 75.61791992 61.20599365 C70.09383518 61.21628609 64.5697459 61.22080396 59.0456543 61.22583008 C48.23769761 61.23650357 37.42976852 61.25407044 26.62182617 61.2746582 Z M26.62182617 120.2746582 C26.62182617 136.4446582 26.62182617 152.6146582 26.62182617 169.2746582 C88.00182617 169.2746582 149.38182617 169.2746582 212.62182617 169.2746582 C215.25490275 156.08163863 215.25490275 156.08163863 215.93432617 143.0246582 C215.92522217 142.18765381 215.91611816 141.35064941 215.90673828 140.48828125 C216.25764817 129.6589423 216.25764817 129.6589423 212.62182617 120.2746582 C210.21854089 120.17699279 207.84403266 120.14468992 205.44029236 120.15440369 C204.67989719 120.15354926 203.91950203 120.15269484 203.13606459 120.15181452 C200.56871367 120.15015743 198.001427 120.15568481 195.43408203 120.16113281 C193.60144553 120.16141466 191.76880892 120.161257 189.93617249 120.16069031 C184.94464555 120.16040224 179.95314242 120.16630043 174.96162105 120.17326427 C169.75123511 120.1794963 164.54084868 120.18010148 159.33045959 120.18128967 C149.45651592 120.18440343 139.58258326 120.19261742 129.70864445 120.20263916 C118.47062616 120.21379891 107.23260736 120.2193104 95.99458492 120.2243346 C72.87032448 120.2348 49.74607915 120.25314604 26.62182617 120.2746582 Z M26.62182617 199.2746582 C26.62182617 208.1846582 26.62182617 217.0946582 26.62182617 226.2746582 C37.56798795 226.32024237 48.51408441 226.356763 59.46032047 226.37828255 C64.54568635 226.38862226 69.63098271 226.40259672 74.71630859 226.42553711 C138.86413649 228.06370381 138.86413649 228.06370381 194.62182617 200.2746582 C194.62182617 199.9446582 194.62182617 199.6146582 194.62182617 199.2746582 C139.18182617 199.2746582 83.74182617 199.2746582 26.62182617 199.2746582 Z " fill="#000000" transform="translate(131.378173828125,11.725341796875)"/>
</svg>
